%TF.GenerationSoftware,KiCad,Pcbnew,(6.0.6-0)*%
%TF.CreationDate,2022-07-18T23:44:10+05:30*%
%TF.ProjectId,GPS_INS_PCB,4750535f-494e-4535-9f50-43422e6b6963,rev?*%
%TF.SameCoordinates,Original*%
%TF.FileFunction,Soldermask,Bot*%
%TF.FilePolarity,Negative*%
%FSLAX46Y46*%
G04 Gerber Fmt 4.6, Leading zero omitted, Abs format (unit mm)*
G04 Created by KiCad (PCBNEW (6.0.6-0)) date 2022-07-18 23:44:10*
%MOMM*%
%LPD*%
G01*
G04 APERTURE LIST*
%ADD10R,1.800000X1.800000*%
%ADD11C,1.800000*%
%ADD12R,1.700000X1.700000*%
%ADD13O,1.700000X1.700000*%
%ADD14R,6.000000X6.000000*%
%ADD15C,6.000000*%
%ADD16C,1.700000*%
%ADD17C,4.000000*%
%ADD18R,1.600000X1.600000*%
%ADD19C,1.600000*%
G04 APERTURE END LIST*
D10*
%TO.C,D3*%
X174700000Y-106275000D03*
D11*
X174700000Y-103735000D03*
%TD*%
D12*
%TO.C,120R JP*%
X158600000Y-51625000D03*
D13*
X158600000Y-54165000D03*
%TD*%
D14*
%TO.C,Q1*%
X175800000Y-88237500D03*
D15*
X176105000Y-95437500D03*
%TD*%
D13*
%TO.C,J9*%
X129400000Y-98535000D03*
D12*
X129400000Y-101075000D03*
%TD*%
%TO.C,J8*%
X160600000Y-65025000D03*
D13*
X160600000Y-67565000D03*
%TD*%
D12*
%TO.C,J3*%
X173900000Y-74125000D03*
D13*
X173900000Y-76665000D03*
%TD*%
%TO.C,J2*%
X114735000Y-41900000D03*
D12*
X117275000Y-41900000D03*
%TD*%
%TO.C,J1*%
X156500000Y-101200000D03*
D13*
X159040000Y-101200000D03*
X161580000Y-101200000D03*
%TD*%
D10*
%TO.C,D2*%
X137500000Y-102700000D03*
D11*
X137500000Y-100160000D03*
%TD*%
D10*
%TO.C,D1*%
X148500000Y-102800000D03*
D11*
X148500000Y-100260000D03*
%TD*%
D16*
%TO.C,U2*%
X136600000Y-93000000D03*
D12*
X151840000Y-93000000D03*
D16*
X136600000Y-90460000D03*
X151840000Y-90460000D03*
X136600000Y-87920000D03*
X151840000Y-87920000D03*
X136600000Y-85380000D03*
X151840000Y-85380000D03*
X136600000Y-82840000D03*
X151840000Y-82840000D03*
X136600000Y-80300000D03*
X151840000Y-80300000D03*
X136600000Y-77760000D03*
X151840000Y-77760000D03*
X136600000Y-75220000D03*
X151840000Y-75220000D03*
X136600000Y-72680000D03*
X151840000Y-72680000D03*
X136600000Y-70140000D03*
X151840000Y-70140000D03*
X136600000Y-67600000D03*
X151840000Y-67600000D03*
X136600000Y-65060000D03*
X151840000Y-65060000D03*
X136600000Y-62520000D03*
X151840000Y-62520000D03*
X136600000Y-59980000D03*
X151840000Y-59980000D03*
X136600000Y-57440000D03*
X151840000Y-57440000D03*
X136600000Y-54900000D03*
X151840000Y-54900000D03*
X136600000Y-52360000D03*
X151840000Y-52360000D03*
X136600000Y-49820000D03*
X151840000Y-49820000D03*
X136600000Y-47280000D03*
X151840000Y-47280000D03*
X136600000Y-44740000D03*
X151840000Y-44740000D03*
%TD*%
D17*
%TO.C,J7*%
X173600000Y-67460000D03*
X173600000Y-42460000D03*
D18*
X173300000Y-60500000D03*
D19*
X173300000Y-57730000D03*
X173300000Y-54960000D03*
X173300000Y-52190000D03*
X173300000Y-49420000D03*
X176140000Y-59115000D03*
X176140000Y-56345000D03*
X176140000Y-53575000D03*
X176140000Y-50805000D03*
%TD*%
D13*
%TO.C,J6*%
X124175000Y-83340000D03*
X124175000Y-85880000D03*
X124175000Y-88420000D03*
X124175000Y-90960000D03*
X124175000Y-93500000D03*
X124175000Y-96040000D03*
X124175000Y-98580000D03*
X124175000Y-101120000D03*
X124175000Y-103660000D03*
D12*
X124175000Y-106200000D03*
%TD*%
%TO.C,J5*%
X119900000Y-47025000D03*
D13*
X117360000Y-47025000D03*
X114820000Y-47025000D03*
X112280000Y-47025000D03*
%TD*%
D12*
%TO.C,J4*%
X160525000Y-74100000D03*
D13*
X160525000Y-76640000D03*
X160525000Y-79180000D03*
X160525000Y-81720000D03*
%TD*%
M02*
