M48
; DRILL file {KiCad (6.0.6-0)} date 2022 July 18, Monday 23:44:05
; FORMAT={-:-/ absolute / inch / decimal}
; #@! TF.CreationDate,2022-07-18T23:44:05+05:30
; #@! TF.GenerationSoftware,Kicad,Pcbnew,(6.0.6-0)
; #@! TF.FileFunction,Plated,1,2,PTH
FMAT,2
INCH
; #@! TA.AperFunction,Plated,PTH,ViaDrill
T1C0.0157
; #@! TA.AperFunction,Plated,PTH,ComponentDrill
T2C0.0354
; #@! TA.AperFunction,Plated,PTH,ComponentDrill
T3C0.0394
; #@! TA.AperFunction,Plated,PTH,ComponentDrill
T4C0.1260
; #@! TA.AperFunction,Plated,PTH,ComponentDrill
T5C0.1772
%
G90
G05
T1
X5.8346Y-3.4528
X6.2638Y-3.437
X6.2874Y-2.2559
X6.3622Y-4.1693
X6.4449Y-2.3071
X6.6181Y-2.685
X6.6654Y-2.0945
X6.7047Y-3.7559
T2
X5.4134Y-3.9433
X5.4134Y-4.0433
X5.8465Y-3.9472
X5.8465Y-4.0472
X6.878Y-4.0841
X6.878Y-4.1841
T3
X4.4205Y-1.8514
X4.5171Y-1.6496
X4.5205Y-1.8514
X4.6171Y-1.6496
X4.6205Y-1.8514
X4.7205Y-1.8514
X4.8888Y-3.2811
X4.8888Y-3.3811
X4.8888Y-3.4811
X4.8888Y-3.5811
X4.8888Y-3.6811
X4.8888Y-3.7811
X4.8888Y-3.8811
X4.8888Y-3.9811
X4.8888Y-4.0811
X4.8888Y-4.1811
X5.0945Y-3.8793
X5.0945Y-3.9793
X5.378Y-1.7614
X5.378Y-1.8614
X5.378Y-1.9614
X5.378Y-2.0614
X5.378Y-2.1614
X5.378Y-2.2614
X5.378Y-2.3614
X5.378Y-2.4614
X5.378Y-2.5614
X5.378Y-2.6614
X5.378Y-2.7614
X5.378Y-2.8614
X5.378Y-2.9614
X5.378Y-3.0614
X5.378Y-3.1614
X5.378Y-3.2614
X5.378Y-3.3614
X5.378Y-3.4614
X5.378Y-3.5614
X5.378Y-3.6614
X5.978Y-1.7614
X5.978Y-1.8614
X5.978Y-1.9614
X5.978Y-2.0614
X5.978Y-2.1614
X5.978Y-2.2614
X5.978Y-2.3614
X5.978Y-2.4614
X5.978Y-2.5614
X5.978Y-2.6614
X5.978Y-2.7614
X5.978Y-2.8614
X5.978Y-2.9614
X5.978Y-3.0614
X5.978Y-3.1614
X5.978Y-3.2614
X5.978Y-3.3614
X5.978Y-3.4614
X5.978Y-3.5614
X5.978Y-3.6614
X6.1614Y-3.9843
X6.2441Y-2.0325
X6.2441Y-2.1325
X6.2614Y-3.9843
X6.3199Y-2.9173
X6.3199Y-3.0173
X6.3199Y-3.1173
X6.3199Y-3.2173
X6.3228Y-2.56
X6.3228Y-2.66
X6.3614Y-3.9843
X6.8228Y-1.9457
X6.8228Y-2.0547
X6.8228Y-2.1638
X6.8228Y-2.2728
X6.8228Y-2.3819
X6.8465Y-2.9183
X6.8465Y-3.0183
X6.9346Y-2.0002
X6.9346Y-2.1093
X6.9346Y-2.2183
X6.9346Y-2.3274
T4
X6.8346Y-1.6717
X6.8346Y-2.6559
T5
X6.9213Y-3.4739
X6.9333Y-3.7574
T0
M30
